<svg width="42" height="45" viewBox="0 0 42 45" fill="none" xmlns="http://www.w3.org/2000/svg">
<path d="M23.2396 16.9101L23.4827 16.6335L23.4884 16.2652L23.6873 3.21857L23.6874 3.21095V3.20332C23.6874 2.78019 23.5019 1.91925 22.7232 1.36073C22.2017 0.986729 21.5462 0.983523 21.1695 1.00881C20.7345 1.03799 20.317 1.13509 20.049 1.21968L19.9471 1.25184L19.8543 1.30478L4.20438 10.2352C3.98622 10.278 3.74003 10.3592 3.50066 10.4926C3.14249 10.6923 2.75073 11.0391 2.55003 11.5933C2.49051 11.7576 2.471 11.9398 2.46223 12.0221C2.44947 12.1416 2.43944 12.2841 2.43116 12.4402C2.41451 12.7544 2.4028 13.1662 2.39483 13.6456C2.37885 14.6069 2.37734 15.8751 2.38461 17.2522C2.39914 20.0081 2.44897 23.2234 2.49047 25.3434L2.49528 25.5895L2.61378 25.8052C2.76577 26.0819 3.037 26.4678 3.39965 26.7985C3.74763 27.1157 4.31177 27.5009 5.03201 27.5009C5.75837 27.5009 6.31734 27.1101 6.66007 26.7851C7.01475 26.4488 7.27343 26.0571 7.41594 25.776L7.52402 25.5628V25.3238V17.3434L18.6039 23.3679V35.7716L10.276 31.0527L17.5689 26.8267L17.7461 26.724L17.8686 26.56C18.3004 25.982 18.736 24.6114 17.6072 23.3745C16.5488 22.2146 15.0941 22.273 14.4639 22.447L14.3322 22.4834L14.2151 22.5537L3.27374 29.1261L3.26985 29.1284C3.26402 29.132 3.25696 29.1362 3.24878 29.1411C3.13588 29.2088 2.80888 29.4049 2.5384 29.678C2.28309 29.9357 1.74438 30.6185 2.13155 31.4745C2.24674 31.7292 2.44622 31.924 2.55213 32.0237C2.68993 32.1534 2.85847 32.2909 3.04214 32.4309C3.41168 32.7125 3.9052 33.0512 4.48203 33.4275C5.63933 34.1823 7.19062 35.1259 8.89081 36.1312C12.2876 38.1395 16.3213 40.4186 19.0977 41.9797L20.5241 42.8529L21.0196 43.1562L21.5285 42.876L33.4646 36.3036L33.6533 36.1997L33.7824 36.0273C34.005 35.7304 34.2564 35.2472 34.3327 34.679C34.4137 34.0755 34.2948 33.3414 33.7045 32.725C33.1452 32.141 32.4179 31.9292 31.8401 31.8639C31.2587 31.7981 30.7089 31.8653 30.3484 31.9571L30.2121 31.9918L30.0906 32.0627L23.7522 35.7656L23.5006 23.3634L34.6679 17.3374V26.5075L28.0517 22.7847L27.9622 22.7344L27.8645 22.7032C27.5213 22.5941 26.981 22.4864 26.4305 22.5292C25.8975 22.5707 25.0911 22.7855 24.68 23.5964C24.4271 24.0952 24.3117 24.649 24.2583 25.0959C24.2039 25.5498 24.2051 25.9674 24.2271 26.2385L24.27 26.768L24.7329 27.0288L35.8732 33.3069L35.9718 33.3625L36.0804 33.3946C36.3815 33.4837 36.8535 33.5893 37.3294 33.6211C37.5675 33.637 37.8412 33.637 38.111 33.5915C38.3677 33.5482 38.72 33.4475 39.0173 33.1836C39.3834 32.8586 39.604 32.429 39.7339 32.1092C39.8698 31.7744 39.9513 31.4458 39.9874 31.2205L40.0014 31.133L39.9998 31.0444L39.6517 11.7196L39.6416 11.1567L39.155 10.8734L27.8655 4.30101L27.6835 4.1951L27.4744 4.17152C27.1226 4.13188 26.578 4.11282 26.0493 4.19059C25.7846 4.22953 25.4829 4.29849 25.1989 4.42681C24.9195 4.55305 24.5799 4.7723 24.3586 5.15436C24.0462 5.69342 24.0304 6.33511 24.0566 6.76278C24.0852 7.22918 24.181 7.67095 24.2661 7.95439L24.3809 8.33637L24.727 8.53452L31.8453 12.6094L21.0472 18.6357L10.294 12.6112L18.4387 7.94955L18.6041 16.2699L18.6084 16.4841L18.7 16.6777C18.9744 17.2575 19.7681 17.9857 21.0462 17.9857C21.6127 17.9857 22.1004 17.7721 22.4418 17.5661C22.7876 17.3575 23.0673 17.1062 23.2396 16.9101Z" fill="#194A9A" stroke="white" stroke-width="2"/>
</svg>
