<svg width="155" height="40" viewBox="0 0 155 40" fill="none" xmlns="http://www.w3.org/2000/svg">
<path d="M55.688 9.832C54.5253 9.832 53.6827 10.1573 53.16 10.808C52.648 11.448 52.392 12.328 52.392 13.448C52.392 13.992 52.456 14.488 52.584 14.936C52.712 15.3733 52.904 15.752 53.16 16.072C53.416 16.392 53.736 16.6427 54.12 16.824C54.504 16.9947 54.952 17.08 55.464 17.08C55.7413 17.08 55.976 17.0747 56.168 17.064C56.3707 17.0533 56.5467 17.032 56.696 17V13.144H59.192V18.632C58.8933 18.7493 58.4133 18.872 57.752 19C57.0907 19.1387 56.2747 19.208 55.304 19.208C54.472 19.208 53.7147 19.08 53.032 18.824C52.36 18.568 51.784 18.1947 51.304 17.704C50.824 17.2133 50.4507 16.6107 50.184 15.896C49.928 15.1813 49.8 14.3653 49.8 13.448C49.8 12.52 49.944 11.6987 50.232 10.984C50.52 10.2693 50.9147 9.66667 51.416 9.176C51.9173 8.67467 52.504 8.296 53.176 8.04C53.8587 7.784 54.584 7.656 55.352 7.656C55.8747 7.656 56.344 7.69333 56.76 7.768C57.1867 7.832 57.5493 7.912 57.848 8.008C58.1573 8.09333 58.408 8.184 58.6 8.28C58.8027 8.376 58.9467 8.45067 59.032 8.504L58.312 10.504C57.9707 10.3227 57.576 10.168 57.128 10.04C56.6907 9.90133 56.2107 9.832 55.688 9.832ZM65.7624 7.784C67.4264 7.784 68.701 8.08267 69.5864 8.68C70.4717 9.26667 70.9144 10.184 70.9144 11.432C70.9144 12.2107 70.733 12.8453 70.3704 13.336C70.0184 13.816 69.5064 14.1947 68.8344 14.472C69.0584 14.7493 69.293 15.0693 69.5384 15.432C69.7837 15.784 70.0237 16.1573 70.2584 16.552C70.5037 16.936 70.7384 17.3413 70.9624 17.768C71.1864 18.184 71.3944 18.5947 71.5864 19H68.7864C68.5837 18.6373 68.3757 18.2693 68.1624 17.896C67.9597 17.5227 67.7464 17.16 67.5224 16.808C67.309 16.456 67.0957 16.1253 66.8824 15.816C66.669 15.496 66.4557 15.208 66.2424 14.952H65.0104V19H62.5144V8.072C63.0584 7.96533 63.6184 7.89067 64.1944 7.848C64.781 7.80533 65.3037 7.784 65.7624 7.784ZM65.9064 9.912C65.725 9.912 65.5597 9.91733 65.4104 9.928C65.2717 9.93867 65.1384 9.94933 65.0104 9.96V12.968H65.7144C66.653 12.968 67.325 12.8507 67.7304 12.616C68.1357 12.3813 68.3384 11.9813 68.3384 11.416C68.3384 10.872 68.1304 10.488 67.7144 10.264C67.309 10.0293 66.7064 9.912 65.9064 9.912ZM82.1103 19C81.9929 18.616 81.8596 18.2213 81.7103 17.816C81.5716 17.4107 81.4329 17.0053 81.2943 16.6H76.9743C76.8356 17.0053 76.6916 17.4107 76.5423 17.816C76.4036 18.2213 76.2756 18.616 76.1583 19H73.5663C73.9823 17.8053 74.3769 16.7013 74.7503 15.688C75.1236 14.6747 75.4863 13.72 75.8383 12.824C76.2009 11.928 76.5529 11.08 76.8943 10.28C77.2463 9.46933 77.6089 8.68 77.9823 7.912H80.3663C80.7289 8.68 81.0863 9.46933 81.4383 10.28C81.7903 11.08 82.1423 11.928 82.4943 12.824C82.8569 13.72 83.2249 14.6747 83.5983 15.688C83.9716 16.7013 84.3663 17.8053 84.7823 19H82.1103ZM79.1183 10.424C79.0649 10.584 78.9849 10.8027 78.8783 11.08C78.7716 11.3573 78.6489 11.6773 78.5103 12.04C78.3716 12.4027 78.2169 12.8027 78.0463 13.24C77.8863 13.6773 77.7209 14.136 77.5503 14.616H80.7023C80.5316 14.136 80.3663 13.6773 80.2063 13.24C80.0463 12.8027 79.8916 12.4027 79.7423 12.04C79.6036 11.6773 79.4809 11.3573 79.3743 11.08C79.2676 10.8027 79.1823 10.584 79.1183 10.424ZM90.5455 7.784C92.1988 7.784 93.4682 8.07733 94.3535 8.664C95.2388 9.24 95.6815 10.1893 95.6815 11.512C95.6815 12.8453 95.2335 13.8107 94.3375 14.408C93.4415 14.9947 92.1615 15.288 90.4975 15.288H89.7135V19H87.2175V8.072C87.7615 7.96533 88.3375 7.89067 88.9455 7.848C89.5535 7.80533 90.0868 7.784 90.5455 7.784ZM90.7055 9.912C90.5242 9.912 90.3428 9.91733 90.1615 9.928C89.9908 9.93867 89.8415 9.94933 89.7135 9.96V13.16H90.4975C91.3615 13.16 92.0122 13.0427 92.4495 12.808C92.8868 12.5733 93.1055 12.136 93.1055 11.496C93.1055 11.1867 93.0468 10.9307 92.9295 10.728C92.8228 10.5253 92.6628 10.3653 92.4495 10.248C92.2468 10.12 91.9962 10.0347 91.6975 9.992C91.3988 9.93867 91.0682 9.912 90.7055 9.912ZM105.202 7.912H107.698V19H105.202V14.296H101.01V19H98.5144V7.912H101.01V12.152H105.202V7.912ZM113.36 13.448C113.36 13.992 113.424 14.4827 113.552 14.92C113.691 15.3573 113.883 15.736 114.128 16.056C114.384 16.3653 114.694 16.6053 115.056 16.776C115.419 16.9467 115.835 17.032 116.304 17.032C116.763 17.032 117.174 16.9467 117.536 16.776C117.91 16.6053 118.219 16.3653 118.464 16.056C118.72 15.736 118.912 15.3573 119.04 14.92C119.179 14.4827 119.248 13.992 119.248 13.448C119.248 12.904 119.179 12.4133 119.04 11.976C118.912 11.528 118.72 11.1493 118.464 10.84C118.219 10.52 117.91 10.2747 117.536 10.104C117.174 9.93333 116.763 9.848 116.304 9.848C115.835 9.848 115.419 9.93867 115.056 10.12C114.694 10.2907 114.384 10.536 114.128 10.856C113.883 11.1653 113.691 11.544 113.552 11.992C113.424 12.4293 113.36 12.9147 113.36 13.448ZM121.824 13.448C121.824 14.2267 121.728 14.9307 121.536 15.56C121.344 16.1787 121.072 16.7227 120.72 17.192C120.379 17.6613 119.968 18.0507 119.488 18.36C119.008 18.6693 118.48 18.8933 117.904 19.032C117.958 19.2453 118.075 19.416 118.256 19.544C118.438 19.6827 118.667 19.7947 118.944 19.88C119.222 19.9653 119.542 20.0293 119.904 20.072C120.278 20.1147 120.678 20.152 121.104 20.184L120.592 22.008C119.76 21.976 119.046 21.8907 118.448 21.752C117.862 21.624 117.36 21.4427 116.944 21.208C116.539 20.9733 116.214 20.6853 115.968 20.344C115.734 20.0027 115.552 19.608 115.424 19.16C114.763 19.0747 114.15 18.8933 113.584 18.616C113.019 18.328 112.528 17.944 112.112 17.464C111.696 16.984 111.371 16.408 111.136 15.736C110.902 15.064 110.784 14.3013 110.784 13.448C110.784 12.4987 110.934 11.6667 111.232 10.952C111.531 10.2267 111.931 9.61867 112.432 9.128C112.944 8.63733 113.531 8.26933 114.192 8.024C114.864 7.77867 115.568 7.656 116.304 7.656C117.062 7.656 117.776 7.77867 118.448 8.024C119.12 8.26933 119.707 8.63733 120.208 9.128C120.71 9.61867 121.104 10.2267 121.392 10.952C121.68 11.6667 121.824 12.4987 121.824 13.448ZM132.313 16.856V19H124.905V7.912H127.401V16.856H132.313ZM53.976 32.144C53.368 32.144 52.76 32.1227 52.152 32.08C51.5547 32.048 50.9307 31.9627 50.28 31.824V21.072C50.792 20.976 51.352 20.9067 51.96 20.864C52.568 20.8107 53.1333 20.784 53.656 20.784C54.36 20.784 55.0053 20.8373 55.592 20.944C56.1893 21.04 56.7013 21.2107 57.128 21.456C57.5547 21.7013 57.8853 22.0267 58.12 22.432C58.3653 22.8267 58.488 23.3173 58.488 23.904C58.488 24.7893 58.0613 25.488 57.208 26C57.912 26.2667 58.392 26.6293 58.648 27.088C58.904 27.5467 59.032 28.064 59.032 28.64C59.032 29.8027 58.6053 30.6773 57.752 31.264C56.9093 31.8507 55.6507 32.144 53.976 32.144ZM52.712 27.168V30.032C52.8933 30.0533 53.0907 30.0693 53.304 30.08C53.5173 30.0907 53.752 30.096 54.008 30.096C54.7547 30.096 55.3573 29.9893 55.816 29.776C56.2747 29.5627 56.504 29.168 56.504 28.592C56.504 28.08 56.312 27.7173 55.928 27.504C55.544 27.28 54.9947 27.168 54.28 27.168H52.712ZM52.712 25.264H53.928C54.696 25.264 55.2453 25.168 55.576 24.976C55.9067 24.7733 56.072 24.4533 56.072 24.016C56.072 23.568 55.9013 23.2533 55.56 23.072C55.2187 22.8907 54.7173 22.8 54.056 22.8C53.8427 22.8 53.6133 22.8053 53.368 22.816C53.1227 22.816 52.904 22.8267 52.712 22.848V25.264ZM69.438 29.856V32H62.03V20.912H64.526V29.856H69.438ZM76.2254 32.224C75.4467 32.224 74.7747 32.1173 74.2094 31.904C73.644 31.68 73.1747 31.376 72.8014 30.992C72.4387 30.5973 72.1667 30.1333 71.9854 29.6C71.8147 29.056 71.7294 28.4587 71.7294 27.808V20.912H74.2254V27.6C74.2254 28.048 74.2734 28.432 74.3694 28.752C74.476 29.0613 74.6147 29.3173 74.7854 29.52C74.9667 29.712 75.18 29.8507 75.4254 29.936C75.6814 30.0213 75.9587 30.064 76.2574 30.064C76.8654 30.064 77.356 29.8773 77.7294 29.504C78.1134 29.1307 78.3054 28.496 78.3054 27.6V20.912H80.8014V27.808C80.8014 28.4587 80.7107 29.056 80.5294 29.6C80.348 30.144 80.0707 30.6133 79.6974 31.008C79.324 31.392 78.8494 31.6907 78.2734 31.904C77.6974 32.1173 77.0147 32.224 76.2254 32.224ZM84.2019 32V20.912H91.6899V23.008H86.6979V25.184H91.1299V27.232H86.6979V29.904H92.0579V32H84.2019ZM98.233 20.784C99.8863 20.784 101.156 21.0773 102.041 21.664C102.926 22.24 103.369 23.1893 103.369 24.512C103.369 25.8453 102.921 26.8107 102.025 27.408C101.129 27.9947 99.849 28.288 98.185 28.288H97.401V32H94.905V21.072C95.449 20.9653 96.025 20.8907 96.633 20.848C97.241 20.8053 97.7743 20.784 98.233 20.784ZM98.393 22.912C98.2117 22.912 98.0303 22.9173 97.849 22.928C97.6783 22.9387 97.529 22.9493 97.401 22.96V26.16H98.185C99.049 26.16 99.6997 26.0427 100.137 25.808C100.574 25.5733 100.793 25.136 100.793 24.496C100.793 24.1867 100.734 23.9307 100.617 23.728C100.51 23.5253 100.35 23.3653 100.137 23.248C99.9343 23.12 99.6837 23.0347 99.385 22.992C99.0863 22.9387 98.7557 22.912 98.393 22.912ZM109.45 20.784C111.114 20.784 112.389 21.0827 113.274 21.68C114.159 22.2667 114.602 23.184 114.602 24.432C114.602 25.2107 114.421 25.8453 114.058 26.336C113.706 26.816 113.194 27.1947 112.522 27.472C112.746 27.7493 112.981 28.0693 113.226 28.432C113.471 28.784 113.711 29.1573 113.946 29.552C114.191 29.936 114.426 30.3413 114.65 30.768C114.874 31.184 115.082 31.5947 115.274 32H112.474C112.271 31.6373 112.063 31.2693 111.85 30.896C111.647 30.5227 111.434 30.16 111.21 29.808C110.997 29.456 110.783 29.1253 110.57 28.816C110.357 28.496 110.143 28.208 109.93 27.952H108.698V32H106.202V21.072C106.746 20.9653 107.306 20.8907 107.882 20.848C108.469 20.8053 108.991 20.784 109.45 20.784ZM109.594 22.912C109.413 22.912 109.247 22.9173 109.098 22.928C108.959 22.9387 108.826 22.9493 108.698 22.96V25.968H109.402C110.341 25.968 111.013 25.8507 111.418 25.616C111.823 25.3813 112.026 24.9813 112.026 24.416C112.026 23.872 111.818 23.488 111.402 23.264C110.997 23.0293 110.394 22.912 109.594 22.912ZM117.874 20.912H120.37V32H117.874V20.912ZM131.376 32C130.662 30.7307 129.888 29.4773 129.056 28.24C128.224 27.0027 127.339 25.8347 126.4 24.736V32H123.936V20.912H125.968C126.32 21.264 126.71 21.696 127.136 22.208C127.563 22.72 127.995 23.2693 128.432 23.856C128.88 24.432 129.323 25.0347 129.76 25.664C130.198 26.2827 130.608 26.88 130.992 27.456V20.912H133.472V32H131.376ZM145.254 20.912V23.04H141.91V32H139.414V23.04H136.07V20.912H145.254Z" fill="#5C5E72"/>
<path d="M19.4885 14.25C19.273 14.4952 18.6828 14.9857 18.0462 14.9857C17.1709 14.9857 16.72 14.4952 16.6039 14.25L16.405 4.24428L5.26469 10.6205L18.0462 17.7814L30.8774 10.6205L22.2238 5.66666C22.0912 5.22523 21.9055 4.20504 22.2238 3.6557C22.5421 3.10637 23.7821 3.09983 24.3624 3.16523L35.6519 9.73761L36 29.0624C35.9503 29.373 35.7513 30.0826 35.3535 30.4357C34.9556 30.7889 33.8615 30.5829 33.3641 30.4357L22.2238 24.1576C22.1907 23.7489 22.2139 22.7549 22.572 22.0486C22.93 21.3423 24.0474 21.4927 24.5613 21.6562L32.6679 26.2176V13.6614L19.4885 20.7733L19.7869 35.4876L27.595 30.9262C28.1089 30.7954 29.3059 30.7104 29.9822 31.4167C30.6586 32.1229 30.2641 33.0516 29.9822 33.4276L18.0462 40L16.6039 39.1171C11.0504 35.9944 0.466786 30 0.0426742 29.0624C-0.186711 28.5553 0.573165 28.1141 0.788677 27.9833L11.73 21.4109C12.1445 21.2965 13.1524 21.2638 13.8686 22.0486C14.5848 22.8333 14.2996 23.6508 14.0675 23.9614L5.26469 29.0624L16.6039 35.4876V20.7733L3.52402 13.6614V23.3238C3.32509 23.7162 2.74818 24.5009 2.03201 24.5009C1.31585 24.5009 0.705787 23.7162 0.490275 23.3238C0.407386 19.0894 0.291341 10.4831 0.490275 9.9338C0.689209 9.38447 1.26943 9.21444 1.53468 9.19809L17.3499 0.173323C17.7644 0.0425294 18.7027 -0.140582 19.1403 0.173323C19.578 0.487228 19.6874 0.990784 19.6874 1.20332L19.4885 14.25Z" fill="#194A9A"/>
<path d="M134.628 39.072C134.298 39.072 133.965 39.06 133.629 39.036C133.293 39.018 132.999 38.976 132.747 38.91V32.853C132.879 32.829 133.02 32.808 133.17 32.79C133.32 32.766 133.473 32.748 133.629 32.736C133.785 32.724 133.938 32.715 134.088 32.709C134.244 32.703 134.391 32.7 134.529 32.7C134.907 32.7 135.258 32.73 135.582 32.79C135.906 32.844 136.185 32.937 136.419 33.069C136.659 33.201 136.845 33.375 136.977 33.591C137.109 33.807 137.175 34.074 137.175 34.392C137.175 34.686 137.103 34.938 136.959 35.148C136.821 35.358 136.626 35.526 136.374 35.652C136.752 35.778 137.031 35.964 137.211 36.21C137.391 36.456 137.481 36.768 137.481 37.146C137.481 37.788 137.247 38.271 136.779 38.595C136.311 38.913 135.594 39.072 134.628 39.072ZM133.863 36.192V38.091C133.989 38.103 134.124 38.112 134.268 38.118C134.412 38.124 134.544 38.127 134.664 38.127C134.898 38.127 135.114 38.112 135.312 38.082C135.516 38.052 135.69 38.001 135.834 37.929C135.984 37.851 136.101 37.749 136.185 37.623C136.275 37.497 136.32 37.335 136.32 37.137C136.32 36.783 136.191 36.537 135.933 36.399C135.675 36.261 135.318 36.192 134.862 36.192H133.863ZM133.863 35.301H134.664C135.096 35.301 135.435 35.241 135.681 35.121C135.927 34.995 136.05 34.773 136.05 34.455C136.05 34.155 135.921 33.942 135.663 33.816C135.411 33.69 135.081 33.627 134.673 33.627C134.499 33.627 134.343 33.63 134.205 33.636C134.073 33.642 133.959 33.651 133.863 33.663V35.301ZM138.662 39V32.763H142.667V33.726H139.796V35.265H142.352V36.21H139.796V38.037H142.883V39H138.662ZM148.282 32.763V33.744H146.365V39H145.222V33.744H143.305V32.763H148.282ZM152.778 39C152.694 38.754 152.607 38.511 152.517 38.271C152.427 38.031 152.34 37.785 152.256 37.533H149.628C149.544 37.785 149.457 38.034 149.367 38.28C149.283 38.52 149.199 38.76 149.115 39H147.936C148.17 38.334 148.392 37.719 148.602 37.155C148.812 36.591 149.016 36.057 149.214 35.553C149.418 35.049 149.619 34.569 149.817 34.113C150.015 33.657 150.219 33.207 150.429 32.763H151.5C151.71 33.207 151.914 33.657 152.112 34.113C152.31 34.569 152.508 35.049 152.706 35.553C152.91 36.057 153.117 36.591 153.327 37.155C153.543 37.719 153.768 38.334 154.002 39H152.778ZM150.942 33.969C150.804 34.287 150.645 34.674 150.465 35.13C150.291 35.586 150.108 36.081 149.916 36.615H151.968C151.776 36.081 151.59 35.583 151.41 35.121C151.23 34.659 151.074 34.275 150.942 33.969Z" fill="black"/>
</svg>
